<mxfile host="65bd71144e">
    <diagram id="qvcuG785nszGomWZRdJF" name="Page-1">
        <mxGraphModel dx="985" dy="552" grid="1" gridSize="10" guides="1" tooltips="1" connect="1" arrows="1" fold="1" page="1" pageScale="1" pageWidth="827" pageHeight="1169" math="0" shadow="0">
            <root>
                <mxCell id="0"/>
                <mxCell id="1" parent="0"/>
                <mxCell id="5" value="Vertical Container" style="swimlane;whiteSpace=wrap;html=1;fillColor=#CCCCCC;" vertex="1" parent="1">
                    <mxGeometry x="30" y="20" width="1110" height="440" as="geometry">
                        <mxRectangle x="20" y="20" width="140" height="30" as="alternateBounds"/>
                    </mxGeometry>
                </mxCell>
                <mxCell id="11" value="" style="shape=cube;whiteSpace=wrap;html=1;boundedLbl=1;backgroundOutline=1;darkOpacity=0.05;darkOpacity2=0.1;size=10;flipH=1;fillColor=#666666;strokeColor=#36393d;" vertex="1" parent="5">
                    <mxGeometry x="150" y="50" width="910" height="340" as="geometry"/>
                </mxCell>
                <mxCell id="22" value="" style="shape=cube;whiteSpace=wrap;html=1;boundedLbl=1;backgroundOutline=1;darkOpacity=0.05;darkOpacity2=0.1;size=10;flipH=1;fillColor=#4D4D4D;" vertex="1" parent="5">
                    <mxGeometry x="300" y="70" width="730" height="310" as="geometry"/>
                </mxCell>
                <mxCell id="17" style="edgeStyle=none;html=1;entryX=0;entryY=0.5;entryDx=0;entryDy=0;exitX=1;exitY=0.5;exitDx=0;exitDy=0;" edge="1" parent="5" source="7" target="12">
                    <mxGeometry relative="1" as="geometry">
                        <Array as="points">
                            <mxPoint x="130" y="55"/>
                            <mxPoint x="130" y="90"/>
                        </Array>
                    </mxGeometry>
                </mxCell>
                <mxCell id="7" value="" style="rounded=1;whiteSpace=wrap;html=1;" vertex="1" parent="5">
                    <mxGeometry x="10" y="30" width="100" height="50" as="geometry"/>
                </mxCell>
                <mxCell id="8" value="ViewState" style="text;html=1;strokeColor=none;fillColor=none;align=center;verticalAlign=middle;whiteSpace=wrap;rounded=0;" vertex="1" parent="5">
                    <mxGeometry x="30" y="40" width="60" height="30" as="geometry"/>
                </mxCell>
                <mxCell id="47" style="edgeStyle=none;html=1;exitX=1;exitY=0.5;exitDx=0;exitDy=0;entryX=0.5;entryY=0;entryDx=0;entryDy=0;" edge="1" parent="5" source="12" target="44">
                    <mxGeometry relative="1" as="geometry">
                        <Array as="points">
                            <mxPoint x="375" y="90"/>
                        </Array>
                    </mxGeometry>
                </mxCell>
                <mxCell id="12" value="" style="rounded=1;whiteSpace=wrap;html=1;shadow=0;" vertex="1" parent="5">
                    <mxGeometry x="170" y="70" width="100" height="40" as="geometry"/>
                </mxCell>
                <mxCell id="13" value="Context" style="text;html=1;strokeColor=none;fillColor=none;align=center;verticalAlign=middle;whiteSpace=wrap;rounded=0;" vertex="1" parent="5">
                    <mxGeometry x="190" y="80" width="60" height="20" as="geometry"/>
                </mxCell>
                <mxCell id="25" style="edgeStyle=none;html=1;exitX=1;exitY=0.5;exitDx=0;exitDy=0;entryX=0;entryY=0.5;entryDx=0;entryDy=0;" edge="1" parent="5" source="20" target="23">
                    <mxGeometry relative="1" as="geometry">
                        <Array as="points">
                            <mxPoint x="290" y="140"/>
                            <mxPoint x="290" y="210"/>
                        </Array>
                    </mxGeometry>
                </mxCell>
                <mxCell id="20" value="" style="rounded=1;whiteSpace=wrap;html=1;" vertex="1" parent="5">
                    <mxGeometry x="170" y="120" width="100" height="40" as="geometry"/>
                </mxCell>
                <mxCell id="21" value="State" style="text;html=1;strokeColor=none;fillColor=none;align=center;verticalAlign=middle;whiteSpace=wrap;rounded=0;" vertex="1" parent="5">
                    <mxGeometry x="190" y="130" width="60" height="20" as="geometry"/>
                </mxCell>
                <mxCell id="26" value="" style="shape=cube;whiteSpace=wrap;html=1;boundedLbl=1;backgroundOutline=1;darkOpacity=0.05;darkOpacity2=0.1;size=10;flipH=1;fillColor=#666666;strokeColor=#36393d;" vertex="1" parent="5">
                    <mxGeometry x="463" y="150" width="477" height="220" as="geometry"/>
                </mxCell>
                <mxCell id="35" value="" style="shape=cube;whiteSpace=wrap;html=1;boundedLbl=1;backgroundOutline=1;darkOpacity=0.05;darkOpacity2=0.1;size=10;flipH=1;fillColor=#808080;strokeColor=#36393d;" vertex="1" parent="5">
                    <mxGeometry x="662" y="170" width="258" height="190" as="geometry"/>
                </mxCell>
                <mxCell id="34" style="edgeStyle=none;html=1;exitX=1;exitY=0.5;exitDx=0;exitDy=0;entryX=0;entryY=0.5;entryDx=0;entryDy=0;" edge="1" parent="5" source="23" target="27">
                    <mxGeometry relative="1" as="geometry">
                        <Array as="points">
                            <mxPoint x="440" y="210"/>
                            <mxPoint x="440" y="250"/>
                        </Array>
                    </mxGeometry>
                </mxCell>
                <mxCell id="31" style="edgeStyle=none;html=1;entryX=0;entryY=0.5;entryDx=0;entryDy=0;exitX=1;exitY=0.5;exitDx=0;exitDy=0;" edge="1" parent="5" source="29" target="27">
                    <mxGeometry relative="1" as="geometry">
                        <mxPoint x="420" y="280" as="sourcePoint"/>
                        <Array as="points">
                            <mxPoint x="450" y="280"/>
                            <mxPoint x="450" y="250"/>
                        </Array>
                    </mxGeometry>
                </mxCell>
                <mxCell id="39" style="edgeStyle=none;html=1;exitX=1;exitY=0.5;exitDx=0;exitDy=0;entryX=0;entryY=0.5;entryDx=0;entryDy=0;" edge="1" parent="5" source="32" target="36">
                    <mxGeometry relative="1" as="geometry">
                        <Array as="points">
                            <mxPoint x="610" y="190"/>
                            <mxPoint x="610" y="210"/>
                        </Array>
                    </mxGeometry>
                </mxCell>
                <mxCell id="40" value="" style="group" vertex="1" connectable="0" parent="5">
                    <mxGeometry x="325" y="190" width="100" height="40" as="geometry"/>
                </mxCell>
                <mxCell id="23" value="" style="rounded=1;whiteSpace=wrap;html=1;shadow=0;" vertex="1" parent="40">
                    <mxGeometry width="100" height="40" as="geometry"/>
                </mxCell>
                <mxCell id="24" value="Scope A" style="text;html=1;strokeColor=none;fillColor=none;align=center;verticalAlign=middle;whiteSpace=wrap;rounded=0;" vertex="1" parent="40">
                    <mxGeometry x="20" y="10" width="60" height="20" as="geometry"/>
                </mxCell>
                <mxCell id="67" value="" style="ellipse;whiteSpace=wrap;html=1;aspect=fixed;shadow=0;fillColor=#808080;" vertex="1" parent="40">
                    <mxGeometry x="10" y="10" width="10" height="10" as="geometry"/>
                </mxCell>
                <mxCell id="41" value="" style="group" vertex="1" connectable="0" parent="5">
                    <mxGeometry x="325" y="260" width="100" height="40" as="geometry"/>
                </mxCell>
                <mxCell id="29" value="" style="rounded=1;whiteSpace=wrap;html=1;" vertex="1" parent="41">
                    <mxGeometry width="100" height="40" as="geometry"/>
                </mxCell>
                <mxCell id="30" value="State" style="text;html=1;strokeColor=none;fillColor=none;align=center;verticalAlign=middle;whiteSpace=wrap;rounded=0;" vertex="1" parent="41">
                    <mxGeometry x="20" y="10" width="60" height="20" as="geometry"/>
                </mxCell>
                <mxCell id="68" value="" style="ellipse;whiteSpace=wrap;html=1;aspect=fixed;shadow=0;fillColor=#3333FF;" vertex="1" parent="41">
                    <mxGeometry x="10" y="10" width="10" height="10" as="geometry"/>
                </mxCell>
                <mxCell id="42" value="" style="group" vertex="1" connectable="0" parent="5">
                    <mxGeometry x="478" y="170" width="100" height="40" as="geometry"/>
                </mxCell>
                <mxCell id="32" value="" style="rounded=1;whiteSpace=wrap;html=1;shadow=0;" vertex="1" parent="42">
                    <mxGeometry width="100" height="40" as="geometry"/>
                </mxCell>
                <mxCell id="33" value="Context" style="text;html=1;strokeColor=none;fillColor=none;align=center;verticalAlign=middle;whiteSpace=wrap;rounded=0;" vertex="1" parent="42">
                    <mxGeometry x="20" y="10" width="60" height="20" as="geometry"/>
                </mxCell>
                <mxCell id="91" value="" style="whiteSpace=wrap;html=1;aspect=fixed;shadow=0;fillColor=#FF3333;" vertex="1" parent="42">
                    <mxGeometry x="10" y="10" width="10" height="10" as="geometry"/>
                </mxCell>
                <mxCell id="43" value="" style="group" vertex="1" connectable="0" parent="5">
                    <mxGeometry x="325" y="120" width="100" height="40" as="geometry"/>
                </mxCell>
                <mxCell id="44" value="" style="rounded=1;whiteSpace=wrap;html=1;shadow=0;" vertex="1" parent="43">
                    <mxGeometry width="100" height="40" as="geometry"/>
                </mxCell>
                <mxCell id="45" value="Context" style="text;html=1;strokeColor=none;fillColor=none;align=center;verticalAlign=middle;whiteSpace=wrap;rounded=0;" vertex="1" parent="43">
                    <mxGeometry x="20" y="10" width="60" height="20" as="geometry"/>
                </mxCell>
                <mxCell id="90" value="" style="whiteSpace=wrap;html=1;aspect=fixed;shadow=0;fillColor=#FF3333;" vertex="1" parent="43">
                    <mxGeometry x="10" y="10" width="10" height="10" as="geometry"/>
                </mxCell>
                <mxCell id="50" value="" style="group" vertex="1" connectable="0" parent="5">
                    <mxGeometry x="682" y="190" width="100" height="40" as="geometry"/>
                </mxCell>
                <mxCell id="36" value="" style="rounded=1;whiteSpace=wrap;html=1;shadow=0;" vertex="1" parent="50">
                    <mxGeometry width="100" height="40" as="geometry"/>
                </mxCell>
                <mxCell id="37" value="Context" style="text;html=1;strokeColor=none;fillColor=none;align=center;verticalAlign=middle;whiteSpace=wrap;rounded=0;" vertex="1" parent="50">
                    <mxGeometry x="20" y="10" width="60" height="20" as="geometry"/>
                </mxCell>
                <mxCell id="92" value="" style="whiteSpace=wrap;html=1;aspect=fixed;shadow=0;fillColor=#FF3333;" vertex="1" parent="50">
                    <mxGeometry x="10" y="10" width="10" height="10" as="geometry"/>
                </mxCell>
                <mxCell id="51" value="" style="group" vertex="1" connectable="0" parent="5">
                    <mxGeometry x="478" y="230" width="100" height="40" as="geometry"/>
                </mxCell>
                <mxCell id="27" value="" style="rounded=1;whiteSpace=wrap;html=1;shadow=0;" vertex="1" parent="51">
                    <mxGeometry width="100" height="40" as="geometry"/>
                </mxCell>
                <mxCell id="28" value="Scope A" style="text;html=1;strokeColor=none;fillColor=none;align=center;verticalAlign=middle;whiteSpace=wrap;rounded=0;" vertex="1" parent="51">
                    <mxGeometry x="20" y="10" width="60" height="20" as="geometry"/>
                </mxCell>
                <mxCell id="73" value="" style="ellipse;whiteSpace=wrap;html=1;aspect=fixed;shadow=0;fillColor=#808080;" vertex="1" parent="51">
                    <mxGeometry x="10" y="10" width="10" height="10" as="geometry"/>
                </mxCell>
                <mxCell id="74" value="" style="ellipse;whiteSpace=wrap;html=1;aspect=fixed;shadow=0;fillColor=#3333FF;" vertex="1" parent="51">
                    <mxGeometry x="10" y="20" width="10" height="10" as="geometry"/>
                </mxCell>
                <mxCell id="53" style="edgeStyle=none;html=1;exitX=1;exitY=0.5;exitDx=0;exitDy=0;entryX=0.5;entryY=0;entryDx=0;entryDy=0;" edge="1" parent="5" source="44" target="32">
                    <mxGeometry relative="1" as="geometry">
                        <Array as="points">
                            <mxPoint x="528" y="140"/>
                        </Array>
                    </mxGeometry>
                </mxCell>
                <mxCell id="54" value="" style="group" vertex="1" connectable="0" parent="5">
                    <mxGeometry x="478" y="290" width="100" height="40" as="geometry"/>
                </mxCell>
                <mxCell id="55" value="" style="rounded=1;whiteSpace=wrap;html=1;" vertex="1" parent="54">
                    <mxGeometry width="100" height="40" as="geometry"/>
                </mxCell>
                <mxCell id="56" value="State" style="text;html=1;strokeColor=none;fillColor=none;align=center;verticalAlign=middle;whiteSpace=wrap;rounded=0;" vertex="1" parent="54">
                    <mxGeometry x="20" y="10" width="60" height="20" as="geometry"/>
                </mxCell>
                <mxCell id="80" value="" style="ellipse;whiteSpace=wrap;html=1;aspect=fixed;shadow=0;fillColor=#00FF80;" vertex="1" parent="54">
                    <mxGeometry x="10" y="10" width="10" height="10" as="geometry"/>
                </mxCell>
                <mxCell id="60" value="" style="group" vertex="1" connectable="0" parent="5">
                    <mxGeometry x="682" y="250" width="100" height="40" as="geometry"/>
                </mxCell>
                <mxCell id="61" value="" style="rounded=1;whiteSpace=wrap;html=1;" vertex="1" parent="60">
                    <mxGeometry width="100" height="40" as="geometry"/>
                </mxCell>
                <mxCell id="62" value="State" style="text;html=1;strokeColor=none;fillColor=none;align=center;verticalAlign=middle;whiteSpace=wrap;rounded=0;" vertex="1" parent="60">
                    <mxGeometry x="20" y="10" width="60" height="20" as="geometry"/>
                </mxCell>
                <mxCell id="81" value="" style="ellipse;whiteSpace=wrap;html=1;aspect=fixed;shadow=0;fillColor=#FFFF00;" vertex="1" parent="60">
                    <mxGeometry x="10" y="10" width="10" height="10" as="geometry"/>
                </mxCell>
                <mxCell id="65" value="" style="ellipse;whiteSpace=wrap;html=1;aspect=fixed;shadow=0;fillColor=#808080;" vertex="1" parent="5">
                    <mxGeometry x="180" y="130" width="10" height="10" as="geometry"/>
                </mxCell>
                <mxCell id="88" value="" style="whiteSpace=wrap;html=1;aspect=fixed;shadow=0;fillColor=#FF3333;" vertex="1" parent="5">
                    <mxGeometry x="20" y="40" width="10" height="10" as="geometry"/>
                </mxCell>
                <mxCell id="89" value="" style="whiteSpace=wrap;html=1;aspect=fixed;shadow=0;fillColor=#FF3333;" vertex="1" parent="5">
                    <mxGeometry x="180" y="80" width="10" height="10" as="geometry"/>
                </mxCell>
                <mxCell id="94" value="Scope A" style="text;html=1;strokeColor=none;fillColor=none;align=center;verticalAlign=middle;whiteSpace=wrap;rounded=0;shadow=0;" vertex="1" parent="5">
                    <mxGeometry x="170" y="170" width="60" height="30" as="geometry"/>
                </mxCell>
            </root>
        </mxGraphModel>
    </diagram>
</mxfile>